<?xml version="1.0"?>
<svg version="1.1" xmlns="http://www.w3.org/2000/svg" width="60px" height="60px" style=""><path fill="#039c66" d="M6,43.4l0.8,4.2s1.8,1,4.4,1c2.92,0,6.12-1.44,6.12-4.28c0-6.16-14.44-3.6-14.44-13.16c0-5.6,4.48-7.96,9.48-7.96c3.8,0,8.44,1.6,8.44,1.6l-0.2,6.8l-2.6,0l-1.36-4.28s-2.04-0.72-4.24-0.72c-3.6,0-5.32,1.88-5.32,3.88c0,6.08,14.4,3.76,14.4,12.76c0,6-4.84,8.76-10.44,8.76c-4.2,0-8.24-1.6-8.24-1.6l0-7l3.2,0z"/><path fill="#039c66" d="M23.76904296875,40.44921875q0.0732421875-1.9775390625,0.128173828125-4.052734375t0.103759765625-4.095458984375t0.0732421875-3.924560546875t0.0244140625-3.55224609375q0.0244140625-0.32958984375,0.57373046875-0.52490234375t1.312255859375-0.286865234375t1.611328125-0.115966796875t1.507568359375-0.0244140625q0.146484375,0,0.6103515625-0.01220703125l0.23193359375,0q0.35400390625,0,0.74462890625,0.0244140625q0.5126953125,0.03662109375,0.897216796875,0.15869140625t0.384521484375,0.35400390625q0,0.1708984375-0.13427734375,0.274658203125t-0.311279296875,0.152587890625t-0.3662109375,0.06103515625t-0.262451171875,0.01220703125q-1.1474609375,0-2.2705078125-0.03662109375q-0.30517578125-0.01220703125-0.62255859375-0.01220703125q-0.830078125,0-1.6845703125,0.0732421875q0.048828125,0.146484375,0.079345703125,0.885009765625t0.030517578125,1.666259765625t-0.01220703125,1.812744140625t0,1.361083984375l0,3.173828125q0.37841796875-0.0244140625,0.74462890625-0.0244140625l0.732421875,0l0.48828125-0.0244140625q0.244140625-0.01220703125,0.5126953125-0.01220703125q0.28076171875,0,0.57373046875,0.01220703125q0.5859375,0.0244140625,1.068115234375,0.140380859375t0.482177734375,0.408935546875q0,0.2197265625-0.18310546875,0.323486328125t-0.408935546875,0.152587890625t-0.42724609375,0.048828125l-0.225830078125,0q-0.69580078125,0-1.446533203125-0.048828125t-1.397705078125-0.048828125q-0.1220703125,0.048828125-0.262451171875,0.03662109375t-0.250244140625-0.01220703125q0,1.8310546875-0.03662109375,3.643798828125t-0.08544921875,3.607177734375q0,0.35400390625-0.445556640625,0.4638671875t-0.848388671875,0.10986328125q-0.45166015625,0-0.714111328125-0.10986328125t-0.372314453125-0.360107421875t-0.13427734375-0.665283203125q-0.01220703125-0.23193359375-0.0244140625-0.5126953125q0-0.23193359375,0.01220703125-0.50048828125z"/></svg>
